<?xml version="1.0" encoding="UTF-8" standalone="no"?>
<!-- Created with Inkscape (http://www.inkscape.org/) -->

<svg
   width="77"
   height="92"
   viewBox="0 0 77 92"
   version="1.1"
   id="svg1"
   xml:space="preserve"
   inkscape:version="1.3.2 (091e20e, 2023-11-25, custom)"
   sodipodi:docname="selection-mods-over.svg"
   xmlns:inkscape="http://www.inkscape.org/namespaces/inkscape"
   xmlns:sodipodi="http://sodipodi.sourceforge.net/DTD/sodipodi-0.dtd"
   xmlns:xlink="http://www.w3.org/1999/xlink"
   xmlns="http://www.w3.org/2000/svg"
   xmlns:svg="http://www.w3.org/2000/svg"><sodipodi:namedview
     id="namedview1"
     pagecolor="#ffffff"
     bordercolor="#000000"
     borderopacity="0.25"
     inkscape:showpageshadow="2"
     inkscape:pageopacity="0.0"
     inkscape:pagecheckerboard="0"
     inkscape:deskcolor="#d1d1d1"
     inkscape:document-units="px"
     inkscape:zoom="4"
     inkscape:cx="38.375"
     inkscape:cy="52.875"
     inkscape:window-width="1920"
     inkscape:window-height="1009"
     inkscape:window-x="-8"
     inkscape:window-y="-8"
     inkscape:window-maximized="1"
     inkscape:current-layer="layer8" /><defs
     id="defs1"><inkscape:path-effect
       effect="fillet_chamfer"
       id="path-effect8"
       is_visible="true"
       lpeversion="1"
       nodesatellites_param="F,0,0,1,0,0,0,1 @ F,0,0,1,0,8,0,1 @ F,0,0,1,0,8,0,1 @ F,0,0,1,0,0,0,1"
       radius="8"
       unit="px"
       method="auto"
       mode="F"
       chamfer_steps="1"
       flexible="false"
       use_knot_distance="true"
       apply_no_radius="true"
       apply_with_radius="true"
       only_selected="false"
       hide_knots="false" /><inkscape:path-effect
       effect="fillet_chamfer"
       id="path-effect7"
       is_visible="true"
       lpeversion="1"
       nodesatellites_param="F,0,0,1,0,2,0,1 @ F,0,0,1,0,2,0,1 @ F,0,0,1,0,2,0,1 @ F,0,0,1,0,2,0,1 @ F,0,0,1,0,2,0,1 @ F,0,0,1,0,2,0,1 @ F,0,0,1,0,2,0,1 @ F,0,0,1,0,2,0,1"
       radius="2"
       unit="px"
       method="auto"
       mode="F"
       chamfer_steps="1"
       flexible="false"
       use_knot_distance="true"
       apply_no_radius="true"
       apply_with_radius="true"
       only_selected="false"
       hide_knots="false" /><filter
       style="color-interpolation-filters:sRGB"
       inkscape:label="Drop Shadow"
       id="filter4"
       x="-0.0057831318"
       y="-0.13333333"
       width="1.0115663"
       height="1.2666667"><feFlood
         result="flood"
         in="SourceGraphic"
         flood-opacity="1.000000"
         flood-color="rgb(0,220,230)"
         id="feFlood3" /><feGaussianBlur
         result="blur"
         in="SourceGraphic"
         stdDeviation="2.000000"
         id="feGaussianBlur3" /><feOffset
         result="offset"
         in="blur"
         dx="0.000000"
         dy="0.000000"
         id="feOffset3" /><feComposite
         result="comp1"
         operator="in"
         in="flood"
         in2="offset"
         id="feComposite3" /><feComposite
         result="comp2"
         operator="over"
         in="SourceGraphic"
         in2="comp1"
         id="feComposite4" /></filter><inkscape:path-effect
       effect="fillet_chamfer"
       id="path-effect8-7"
       is_visible="true"
       lpeversion="1"
       nodesatellites_param="F,0,0,1,0,0,0,1 @ F,0,0,1,0,8,0,1 @ F,0,0,1,0,8,0,1 @ F,0,1,1,0,0,0,1 @ F,0,0,1,0,0,0,1 @ F,0,0,1,0,0,0,1 @ F,0,0,1,0,0,0,1"
       radius="0"
       unit="px"
       method="auto"
       mode="F"
       chamfer_steps="1"
       flexible="false"
       use_knot_distance="true"
       apply_no_radius="true"
       apply_with_radius="true"
       only_selected="true"
       hide_knots="false" /><filter
       style="color-interpolation-filters:sRGB"
       inkscape:label="Drop Shadow"
       id="filter5"
       x="-1.325"
       y="-0.15588235"
       width="3.65"
       height="1.3117647"><feFlood
         result="flood"
         in="SourceGraphic"
         flood-opacity="1.000000"
         flood-color="rgb(237,194,0)"
         id="feFlood2" /><feGaussianBlur
         result="blur"
         in="SourceGraphic"
         stdDeviation="4.000000"
         id="feGaussianBlur2" /><feOffset
         result="offset"
         in="blur"
         dx="0.000000"
         dy="0.000000"
         id="feOffset2" /><feComposite
         result="comp1"
         operator="in"
         in="flood"
         in2="offset"
         id="feComposite2" /><feComposite
         result="comp2"
         operator="over"
         in="SourceGraphic"
         in2="comp1"
         id="feComposite5" /></filter><filter
       style="color-interpolation-filters:sRGB"
       inkscape:label="Drop Shadow"
       id="filter5-2"
       x="-1.325"
       y="-0.15588235"
       width="3.65"
       height="1.3117647"><feFlood
         result="flood"
         in="SourceGraphic"
         flood-opacity="1.000000"
         flood-color="rgb(237,194,0)"
         id="feFlood2-4" /><feGaussianBlur
         result="blur"
         in="SourceGraphic"
         stdDeviation="4.000000"
         id="feGaussianBlur2-9" /><feOffset
         result="offset"
         in="blur"
         dx="0.000000"
         dy="0.000000"
         id="feOffset2-8" /><feComposite
         result="comp1"
         operator="in"
         in="flood"
         in2="offset"
         id="feComposite2-6" /><feComposite
         result="comp2"
         operator="over"
         in="SourceGraphic"
         in2="comp1"
         id="feComposite5-3" /></filter><linearGradient
       inkscape:collect="always"
       xlink:href="#linearGradient2"
       id="linearGradient3"
       x1="2"
       y1="5"
       x2="2"
       y2="88"
       gradientUnits="userSpaceOnUse"
       gradientTransform="translate(0,2)" /><linearGradient
       id="linearGradient2"
       inkscape:collect="always"><stop
         style="stop-color:#00696e;stop-opacity:1;"
         offset="0"
         id="stop2" /><stop
         style="stop-color:#00696e;stop-opacity:0;"
         offset="1"
         id="stop3" /></linearGradient></defs><g
     inkscape:groupmode="layer"
     id="layer2"
     inkscape:label="Reference" /><g
     inkscape:groupmode="layer"
     id="layer8"
     inkscape:label="hover"><g
       id="g7"><rect
         style="font-variation-settings:'wght' 400;fill:#000000;fill-opacity:1;stroke:none;stroke-width:2;stroke-linecap:round;stroke-linejoin:round;stroke-dasharray:none;stroke-opacity:1;paint-order:stroke fill markers"
         id="rect6"
         width="77"
         height="90"
         x="0"
         y="2" /><rect
         style="font-variation-settings:'wght' 400;fill:#8ff2fa;fill-opacity:1;stroke:none;stroke-width:2;stroke-linecap:round;stroke-linejoin:round;stroke-dasharray:none;stroke-opacity:1;paint-order:stroke fill markers"
         id="rect7"
         width="73"
         height="4"
         x="2"
         y="1"
         rx="2" /></g><rect
       style="fill:url(#linearGradient3);stroke:none;stroke-width:2;stroke-linecap:round;stroke-linejoin:round;paint-order:stroke fill markers"
       id="rect2"
       width="73"
       height="83"
       x="2"
       y="7"
       rx="2" /></g><g
     inkscape:label="Layer 1"
     inkscape:groupmode="layer"
     id="layer1"><text
       xml:space="preserve"
       style="font-style:normal;font-variant:normal;font-weight:500;font-stretch:normal;font-size:18px;font-family:Montserrat;-inkscape-font-specification:'Montserrat Medium';font-variant-ligatures:normal;font-variant-caps:small-caps;font-variant-numeric:tabular-nums;font-variant-east-asian:normal;text-align:center;text-anchor:middle;fill:#b7ecf1;fill-opacity:1;stroke:none;stroke-width:2;stroke-linecap:round;stroke-linejoin:round;stroke-dasharray:none;stroke-opacity:1;paint-order:stroke fill markers"
       x="38.5"
       y="80"
       id="text7"><tspan
         sodipodi:role="line"
         id="tspan7"
         x="38.5"
         y="80">mods</tspan></text><path
       d="m 49.3363,29.2857 v 12.6714 c -0.17268,4.97928 -4.22112,8.97288 -9.26826,8.97288 -5.04714,0 -9.16587,-4.00008 -9.33855,-8.97288 l -2.910618,-4.27362 c -0.1311,-0.19488 -0.179148,-0.43344 -0.133614,-0.66348 0.04554,-0.23004 0.180948,-0.43278 0.376548,-0.5637 0.142608,-0.09852 0.3129,-0.1497 0.486528,-0.14622 0.145698,-8.4e-4 0.28929,0.03456 0.417726,0.10296 0.12843,0.0684 0.237624,0.16764 0.31764,0.28866 l 3.29406,4.94082 c 0.0246,0.30366 0.1659,0.58626 0.39456,0.78906 0.22866,0.2028 0.5271,0.31026 0.8334,0.3 0.30624,-0.01026 0.59676,-0.1374 0.8112,-0.35508 0.21444,-0.21762 0.3363,-0.50904 0.34026,-0.81366 h 0.0066 V 24.647154 c 0.0062,-0.228618 0.102,-0.445782 0.26688,-0.60528 0.16488,-0.159504 0.38586,-0.248748 0.6159,-0.248748 0.23004,0 0.45102,0.08924 0.61584,0.248748 0.16488,0.159498 0.26064,0.376662 0.26694,0.60528 V 39.31146 c 0.0012,0.85644 0.34392,1.67742 0.95304,2.283 0.60912,0.60558 1.4349,0.94632 2.29638,0.94752 0.80142,8.4e-4 1.57428,-0.29622 2.16666,-0.83292 0.46344,0.41676 1.03812,0.69156 1.65486,0.79128 0.6168,0.09972 1.24944,0.02016 1.82178,-0.22914 0.5724,-0.2493 1.06014,-0.65766 1.40454,-1.17606 0.34446,-0.51834 0.53088,-1.12458 0.53694,-1.74582 V 28.5324 c 0,-0.22938 0.09168,-0.4494 0.25482,-0.61158 0.16314,-0.16218 0.38442,-0.25332 0.61518,-0.25332 0.2307,0 0.45198,0.09114 0.61512,0.25332 0.16314,0.16218 0.25482,0.3822 0.25482,0.61158 z m -10.221,5.51064 c 0,-0.1161 0.02304,-0.231 0.06768,-0.33828 0.0447,-0.10722 0.11016,-0.20466 0.19272,-0.28674 0.08256,-0.08202 0.1806,-0.14712 0.28842,-0.19158 0.10788,-0.0444 0.2235,-0.06726 0.3402,-0.06726 0.11676,0 0.23238,0.02286 0.3402,0.06726 0.10788,0.04446 0.20592,0.10956 0.28842,0.19158 0.08256,0.08208 0.14808,0.17952 0.19272,0.28674 0.0447,0.10728 0.06768,0.22218 0.06768,0.33828 v 4.52754 c 0,0.11604 -0.02298,0.231 -0.06768,0.33822 -0.04464,0.10722 -0.11016,0.20466 -0.19272,0.28674 -0.0825,0.08208 -0.18054,0.14718 -0.28842,0.19158 -0.10782,0.04446 -0.22344,0.06732 -0.3402,0.06732 -0.1167,0 -0.23232,-0.02286 -0.3402,-0.06732 C 39.5563,40.09602 39.45826,40.03092 39.3757,39.94884 39.29314,39.86676 39.22768,39.76932 39.18298,39.6621 39.13834,39.55488 39.1153,39.43992 39.1153,39.32388 Z m 4.34268,0 c 0.0062,-0.23034 0.10272,-0.44916 0.2688,-0.60984 0.16614,-0.16074 0.38874,-0.25068 0.62052,-0.25068 0.23178,0 0.45438,0.08994 0.62046,0.25068 0.16608,0.16068 0.26256,0.3795 0.26886,0.60984 v 4.52754 c 0.0032,0.11814 -0.0174,0.23568 -0.0606,0.34578 -0.04326,0.1101 -0.10824,0.21042 -0.19116,0.29514 -0.08292,0.08466 -0.18204,0.15198 -0.29154,0.19794 -0.1095,0.04596 -0.22716,0.06966 -0.34602,0.06966 -0.11886,0 -0.23652,-0.0237 -0.34602,-0.06966 -0.10956,-0.04596 -0.20868,-0.11328 -0.29154,-0.19794 -0.08292,-0.08472 -0.1479,-0.18504 -0.19116,-0.29514 -0.04326,-0.1101 -0.06384,-0.22764 -0.0606,-0.34578 z M 51.7,29.2857 v -0.74418 c -0.01212,-0.84546 -0.35844,-1.65222 -0.96408,-2.245848 -0.6057,-0.593628 -1.422,-0.926418 -2.27256,-0.926418 -0.8505,0 -1.6668,0.33279 -2.2725,0.926418 -0.60564,0.593628 -0.95196,1.400388 -0.96408,2.245848 v 3.14766 c -0.28962,-0.07932 -0.5886,-0.11994 -0.88902,-0.12078 -0.80136,-3e-4 -1.57404,0.2967 -2.16672,0.83292 -0.59364,-0.53466 -1.36566,-0.83142 -2.16672,-0.83292 -0.30042,8.4e-4 -0.59934,0.04146 -0.88902,0.12078 v -7.042026 c 0,-0.856956 -0.34236,-1.678818 -0.9519,-2.284782 -0.60948,-0.605965 -1.43616,-0.946392 -2.29812,-0.946392 -0.86202,0 -1.68864,0.340427 -2.29818,0.946392 -0.60948,0.605964 -0.9519,1.427826 -0.9519,2.284782 V 37.43544 l -1.36767,-2.02878 c -0.235536,-0.35508 -0.53943,-0.66024 -0.894168,-0.89796 -0.354738,-0.23772 -0.753294,-0.40332 -1.1727,-0.48714 -0.419406,-0.08388 -0.851358,-0.08436 -1.27095,-0.0014 -0.419598,0.08286 -0.818544,0.2475 -1.173828,0.48444 -0.355284,0.23694 -0.659886,0.54138 -0.896239,0.89592 -0.236355,0.35448 -0.399789,0.75204 -0.480879,1.16964 -0.08109,0.4176 -0.07823,0.84702 0.0084,1.26354 0.08664,0.41646 0.255349,0.8118 0.496401,1.16316 l 2.642081,3.92964 c 0.639504,5.78742 5.571084,10.28952 11.551884,10.28952 6.31302,0 11.46192,-5.01714 11.6346,-11.2497 z"
       fill="#555555"
       id="path1"
       style="fill:#b7ecf1;fill-opacity:1;stroke-width:0.6" /></g></svg>
